<svg width="21" height="23" viewBox="0 0 21 23" fill="none" xmlns="http://www.w3.org/2000/svg">
<path fill-rule="evenodd" clip-rule="evenodd" d="M11.8745 0.681651C12.5027 0.0535041 13.5211 0.0535041 14.1492 0.681651L20.0313 6.56387L14.1225 12.2043C13.4799 12.8176 12.4618 12.794 11.8484 12.1514C11.235 11.5088 11.2587 10.4907 11.9013 9.87731L13.7155 8.14556H9.79497C6.65623 8.14556 4.11177 10.69 4.11177 13.8288C4.11177 16.9675 6.65623 19.5119 9.79497 19.5119H17.73C18.6182 19.5119 19.3386 20.232 19.3386 21.1205C19.3386 22.0087 18.6182 22.7288 17.73 22.7288H9.79497C4.87958 22.7288 0.894897 18.7442 0.894897 13.8288C0.894897 8.91337 4.87958 4.92866 9.79497 4.92866H13.8469L11.8745 2.95635C11.2464 2.32821 11.2464 1.3098 11.8745 0.681651Z" fill="#1F8459"/>
</svg>
