<svg width="19" height="18" viewBox="0 0 19 18" fill="none" xmlns="http://www.w3.org/2000/svg">
<path d="M11.75 1.5H5C4.60218 1.5 4.22064 1.65804 3.93934 1.93934C3.65804 2.22064 3.5 2.60218 3.5 3V15C3.5 15.3978 3.65804 15.7794 3.93934 16.0607C4.22064 16.342 4.60218 16.5 5 16.5H14C14.3978 16.5 14.7794 16.342 15.0607 16.0607C15.342 15.7794 15.5 15.3978 15.5 15V5.25L11.75 1.5Z" stroke="#1F8459" stroke-width="2" stroke-linecap="round" stroke-linejoin="round"/>
<path d="M11 1.5V4.5C11 4.89782 11.158 5.27936 11.4393 5.56066C11.7206 5.84196 12.1022 6 12.5 6H15.5" stroke="#1F8459" stroke-width="2" stroke-linecap="round" stroke-linejoin="round"/>
</svg>
