<svg width="32" height="32" viewBox="0 0 32 32" fill="none" xmlns="http://www.w3.org/2000/svg">
<path d="M31 15.9999C31.0063 18.3814 30.2337 20.6996 28.8 22.6012C28.721 22.7062 28.6222 22.7947 28.509 22.8615C28.3959 22.9284 28.2707 22.9723 28.1405 22.9907C28.0104 23.0092 27.8779 23.0018 27.7507 22.9691C27.6234 22.9364 27.5038 22.8789 27.3988 22.7999C27.2937 22.721 27.2052 22.6221 27.1384 22.5089C27.0715 22.3958 27.0276 22.2706 27.0092 22.1405C26.9907 22.0103 26.9981 21.8779 27.0308 21.7506C27.0636 21.6233 27.121 21.5037 27.2 21.3987C28.3735 19.844 29.0057 17.9478 29 15.9999C29 13.613 28.0518 11.3238 26.364 9.63595C24.6761 7.94813 22.387 6.99991 20 6.99991C17.6131 6.99991 15.3239 7.94813 13.636 9.63595C11.9482 11.3238 11 13.613 11 15.9999C11 16.2651 10.8946 16.5195 10.7071 16.707C10.5196 16.8946 10.2652 16.9999 10 16.9999C9.73479 16.9999 9.48044 16.8946 9.2929 16.707C9.10536 16.5195 9.00001 16.2651 9.00001 15.9999C8.99952 14.9908 9.1379 13.9863 9.41126 13.0149C9.27501 12.9999 9.13751 12.9999 9.00001 12.9999C7.40871 12.9999 5.88258 13.6321 4.75737 14.7573C3.63215 15.8825 3.00001 17.4086 3.00001 18.9999C3.00001 20.5912 3.63215 22.1173 4.75737 23.2426C5.88258 24.3678 7.40871 24.9999 9.00001 24.9999H12C12.2652 24.9999 12.5196 25.1053 12.7071 25.2928C12.8946 25.4803 13 25.7347 13 25.9999C13 26.2651 12.8946 26.5195 12.7071 26.707C12.5196 26.8946 12.2652 26.9999 12 26.9999H9.00001C7.90023 27.0002 6.8122 26.7737 5.8039 26.3345C4.79559 25.8954 3.88865 25.2531 3.13972 24.4477C2.3908 23.6423 1.81598 22.6912 1.45115 21.6537C1.08633 20.6162 0.939347 19.5146 1.01938 18.4177C1.09941 17.3209 1.40475 16.2523 1.91631 15.2787C2.42787 14.3052 3.13467 13.4475 3.99257 12.7594C4.85047 12.0713 5.84104 11.5674 6.90241 11.2793C7.96378 10.9912 9.07316 10.925 10.1613 11.0849C11.2693 8.86886 13.0929 7.09176 15.3369 6.04145C17.5809 4.99115 20.1137 4.72916 22.5252 5.29792C24.9366 5.86668 27.0854 7.23288 28.6236 9.17522C30.1617 11.1176 30.999 13.5223 31 15.9999ZM19.7075 15.2924C19.6146 15.1994 19.5043 15.1257 19.3829 15.0754C19.2615 15.025 19.1314 14.9991 19 14.9991C18.8686 14.9991 18.7385 15.025 18.6171 15.0754C18.4957 15.1257 18.3854 15.1994 18.2925 15.2924L14.2925 19.2924C14.1996 19.3853 14.1259 19.4956 14.0756 19.617C14.0253 19.7384 13.9994 19.8685 13.9994 19.9999C13.9994 20.1313 14.0253 20.2614 14.0756 20.3828C14.1259 20.5042 14.1996 20.6145 14.2925 20.7074C14.4801 20.8951 14.7346 21.0005 15 21.0005C15.1314 21.0005 15.2615 20.9746 15.3829 20.9243C15.5043 20.874 15.6146 20.8003 15.7075 20.7074L18 18.4137V25.9999C18 26.2651 18.1054 26.5195 18.2929 26.707C18.4804 26.8946 18.7348 26.9999 19 26.9999C19.2652 26.9999 19.5196 26.8946 19.7071 26.707C19.8947 26.5195 20 26.2651 20 25.9999V18.4137L22.2925 20.7074C22.3854 20.8003 22.4957 20.874 22.6171 20.9243C22.7385 20.9746 22.8686 21.0005 23 21.0005C23.1314 21.0005 23.2615 20.9746 23.3829 20.9243C23.5043 20.874 23.6146 20.8003 23.7075 20.7074C23.8004 20.6145 23.8741 20.5042 23.9244 20.3828C23.9747 20.2614 24.0006 20.1313 24.0006 19.9999C24.0006 19.8685 23.9747 19.7384 23.9244 19.617C23.8741 19.4956 23.8004 19.3853 23.7075 19.2924L19.7075 15.2924Z" fill="white"/>
</svg>
